<svg id="visual" viewBox="0 0 900 400" width="900" height="400" xmlns="http://www.w3.org/2000/svg" xmlns:xlink="http://www.w3.org/1999/xlink" version="1.1"><path d="M0 116L15 112.2C30 108.3 60 100.7 90 102.3C120 104 150 115 180 113.5C210 112 240 98 270 93.5C300 89 330 94 360 99.7C390 105.3 420 111.7 450 108.3C480 105 510 92 540 89C570 86 600 93 630 98.8C660 104.7 690 109.3 720 106C750 102.7 780 91.3 810 90.5C840 89.7 870 99.3 885 104.2L900 109L900 0L885 0C870 0 840 0 810 0C780 0 750 0 720 0C690 0 660 0 630 0C600 0 570 0 540 0C510 0 480 0 450 0C420 0 390 0 360 0C330 0 300 0 270 0C240 0 210 0 180 0C150 0 120 0 90 0C60 0 30 0 15 0L0 0Z" fill="#b9fa69"></path><path d="M0 102L15 99.7C30 97.3 60 92.7 90 91.3C120 90 150 92 180 94.8C210 97.7 240 101.3 270 101.8C300 102.3 330 99.7 360 96.7C390 93.7 420 90.3 450 86C480 81.7 510 76.3 540 77.5C570 78.7 600 86.3 630 90.3C660 94.3 690 94.7 720 96.3C750 98 780 101 810 100C840 99 870 94 885 91.5L900 89L900 0L885 0C870 0 840 0 810 0C780 0 750 0 720 0C690 0 660 0 630 0C600 0 570 0 540 0C510 0 480 0 450 0C420 0 390 0 360 0C330 0 300 0 270 0C240 0 210 0 180 0C150 0 120 0 90 0C60 0 30 0 15 0L0 0Z" fill="#a8e75f"></path><path d="M0 64L15 66.8C30 69.7 60 75.3 90 77.3C120 79.3 150 77.7 180 75.3C210 73 240 70 270 66.7C300 63.3 330 59.7 360 57C390 54.3 420 52.7 450 51.3C480 50 510 49 540 48.8C570 48.7 600 49.3 630 51.3C660 53.3 690 56.7 720 59C750 61.3 780 62.7 810 62C840 61.3 870 58.7 885 57.3L900 56L900 0L885 0C870 0 840 0 810 0C780 0 750 0 720 0C690 0 660 0 630 0C600 0 570 0 540 0C510 0 480 0 450 0C420 0 390 0 360 0C330 0 300 0 270 0C240 0 210 0 180 0C150 0 120 0 90 0C60 0 30 0 15 0L0 0Z" fill="#97d455"></path><path d="M0 30L15 31C30 32 60 34 90 36.2C120 38.3 150 40.7 180 42.3C210 44 240 45 270 43.5C300 42 330 38 360 39.7C390 41.3 420 48.7 450 48.2C480 47.7 510 39.3 540 36C570 32.7 600 34.3 630 36.5C660 38.7 690 41.3 720 41.7C750 42 780 40 810 40.2C840 40.3 870 42.7 885 43.8L900 45L900 0L885 0C870 0 840 0 810 0C780 0 750 0 720 0C690 0 660 0 630 0C600 0 570 0 540 0C510 0 480 0 450 0C420 0 390 0 360 0C330 0 300 0 270 0C240 0 210 0 180 0C150 0 120 0 90 0C60 0 30 0 15 0L0 0Z" fill="#86c24b"></path><path d="M0 21L15 21.2C30 21.3 60 21.7 90 23.2C120 24.7 150 27.3 180 30C210 32.7 240 35.3 270 32.3C300 29.3 330 20.7 360 17.7C390 14.7 420 17.3 450 21.8C480 26.3 510 32.7 540 35.7C570 38.7 600 38.3 630 37.7C660 37 690 36 720 35C750 34 780 33 810 30.3C840 27.7 870 23.3 885 21.2L900 19L900 0L885 0C870 0 840 0 810 0C780 0 750 0 720 0C690 0 660 0 630 0C600 0 570 0 540 0C510 0 480 0 450 0C420 0 390 0 360 0C330 0 300 0 270 0C240 0 210 0 180 0C150 0 120 0 90 0C60 0 30 0 15 0L0 0Z" fill="#76b041"></path></svg>