<svg id="visual" viewBox="0 0 900 400" width="900" height="400" xmlns="http://www.w3.org/2000/svg" xmlns:xlink="http://www.w3.org/1999/xlink" version="1.1"><path d="M0 283L15 287.3C30 291.7 60 300.3 90 297.8C120 295.3 150 281.7 180 280.8C210 280 240 292 270 295.2C300 298.3 330 292.7 360 292.2C390 291.7 420 296.3 450 295.5C480 294.7 510 288.3 540 283.2C570 278 600 274 630 272.3C660 270.7 690 271.3 720 271.7C750 272 780 272 810 275.8C840 279.7 870 287.3 885 291.2L900 295L900 401L885 401C870 401 840 401 810 401C780 401 750 401 720 401C690 401 660 401 630 401C600 401 570 401 540 401C510 401 480 401 450 401C420 401 390 401 360 401C330 401 300 401 270 401C240 401 210 401 180 401C150 401 120 401 90 401C60 401 30 401 15 401L0 401Z" fill="#b9fa69"></path><path d="M0 329L15 328.3C30 327.7 60 326.3 90 325.7C120 325 150 325 180 321C210 317 240 309 270 304C300 299 330 297 360 301.7C390 306.3 420 317.7 450 320.8C480 324 510 319 540 316.2C570 313.3 600 312.7 630 315.3C660 318 690 324 720 321.8C750 319.7 780 309.3 810 309.7C840 310 870 321 885 326.5L900 332L900 401L885 401C870 401 840 401 810 401C780 401 750 401 720 401C690 401 660 401 630 401C600 401 570 401 540 401C510 401 480 401 450 401C420 401 390 401 360 401C330 401 300 401 270 401C240 401 210 401 180 401C150 401 120 401 90 401C60 401 30 401 15 401L0 401Z" fill="#a8e75f"></path><path d="M0 349L15 344.3C30 339.7 60 330.3 90 330C120 329.7 150 338.3 180 337.8C210 337.3 240 327.7 270 327.3C300 327 330 336 360 340.7C390 345.3 420 345.7 450 344.8C480 344 510 342 540 342.8C570 343.7 600 347.3 630 347.7C660 348 690 345 720 343.5C750 342 780 342 810 337.7C840 333.3 870 324.7 885 320.3L900 316L900 401L885 401C870 401 840 401 810 401C780 401 750 401 720 401C690 401 660 401 630 401C600 401 570 401 540 401C510 401 480 401 450 401C420 401 390 401 360 401C330 401 300 401 270 401C240 401 210 401 180 401C150 401 120 401 90 401C60 401 30 401 15 401L0 401Z" fill="#97d455"></path><path d="M0 367L15 362.5C30 358 60 349 90 348C120 347 150 354 180 354.5C210 355 240 349 270 349.3C300 349.7 330 356.3 360 358C390 359.7 420 356.3 450 353.8C480 351.3 510 349.7 540 351.8C570 354 600 360 630 361C660 362 690 358 720 355.2C750 352.3 780 350.7 810 350C840 349.3 870 349.7 885 349.8L900 350L900 401L885 401C870 401 840 401 810 401C780 401 750 401 720 401C690 401 660 401 630 401C600 401 570 401 540 401C510 401 480 401 450 401C420 401 390 401 360 401C330 401 300 401 270 401C240 401 210 401 180 401C150 401 120 401 90 401C60 401 30 401 15 401L0 401Z" fill="#86c24b"></path><path d="M0 378L15 376C30 374 60 370 90 367.7C120 365.3 150 364.7 180 363.7C210 362.7 240 361.3 270 361.2C300 361 330 362 360 362.5C390 363 420 363 450 364C480 365 510 367 540 370.7C570 374.3 600 379.7 630 380.3C660 381 690 377 720 373.8C750 370.7 780 368.3 810 366.8C840 365.3 870 364.7 885 364.3L900 364L900 401L885 401C870 401 840 401 810 401C780 401 750 401 720 401C690 401 660 401 630 401C600 401 570 401 540 401C510 401 480 401 450 401C420 401 390 401 360 401C330 401 300 401 270 401C240 401 210 401 180 401C150 401 120 401 90 401C60 401 30 401 15 401L0 401Z" fill="#76b041"></path></svg>