<svg version="1.1" id="Layer_1" xmlns="http://www.w3.org/2000/svg" xmlns:xlink="http://www.w3.org/1999/xlink" x="0px" y="0px"
	 width="100%" viewBox="0 0 534 532" enable-background="new 0 0 534 532" xml:space="preserve">
<path fill="#76B041" opacity="1.000000" stroke="none" 
	d="
M535.000000,3.000000 
	C535.000000,25.020895 535.000000,47.041790 534.552856,69.376167 
	C522.459412,69.793037 510.810059,70.111641 499.167480,69.947601 
	C483.106781,69.721306 467.872131,84.795166 467.900116,100.956802 
	C468.089172,210.203613 468.067322,319.451050 467.863556,428.697815 
	C467.846802,437.665588 466.826202,446.826508 464.814514,455.562012 
	C455.801086,494.702148 423.275360,525.785461 382.864349,531.090942 
	C382.171295,531.181946 381.618347,532.339966 381.000000,533.000000 
	C372.645782,533.000000 364.291534,533.000000 355.620850,532.598877 
	C352.982483,531.691711 350.650330,531.228149 348.340271,530.672791 
	C333.074402,527.002625 318.812836,521.332031 306.435242,511.243469 
	C296.007355,502.744080 286.680756,493.298401 280.811188,481.186371 
	C276.015106,471.289490 272.461853,460.790344 268.233856,450.249817 
	C246.546082,450.249817 223.937271,450.249817 202.019745,450.249817 
	C199.330444,458.247955 197.535629,466.170532 194.115128,473.314728 
	C178.675568,505.562561 153.567108,525.379395 117.866493,531.088257 
	C117.160477,531.201172 116.618500,532.339905 116.000000,533.000000 
	C107.312439,533.000000 98.624870,533.000000 89.633911,532.607422 
	C88.825172,531.836121 88.357445,531.194885 87.809105,531.116272 
	C64.163940,527.728149 44.622925,516.983582 28.602417,499.222198 
	C11.622414,480.397156 3.579729,458.039825 3.201520,433.265808 
	C2.711761,401.184937 3.718149,369.082489 3.970280,336.988434 
	C4.070929,324.176758 6.971814,311.822540 11.231865,299.992462 
	C20.297321,274.817780 34.563503,253.012787 55.551155,235.885574 
	C83.571770,213.019028 115.780167,201.326660 151.709641,201.129074 
	C228.512009,200.706726 305.318359,200.972046 382.122955,201.055374 
	C387.976013,201.061722 393.828247,201.855072 399.997559,202.305740 
	C399.997559,200.469971 399.997498,198.653030 399.997528,196.836105 
	C399.998260,164.681427 399.860168,132.525650 400.115692,100.373001 
	C400.167419,93.865402 401.292023,87.282455 402.636627,80.884438 
	C406.978699,60.223385 417.101410,42.843548 432.811646,28.634403 
	C450.822815,12.344205 471.715973,3.354744 496.100525,3.030451 
	C509.064850,2.858036 522.033386,2.999963 535.000000,3.000000 
M74.885223,323.365479 
	C73.705299,328.023132 72.525375,332.680786 71.062393,338.455780 
	C74.308891,337.730286 76.015648,337.420319 77.682808,336.965302 
	C94.441925,332.391174 111.379318,332.512421 128.031326,336.672211 
	C153.199158,342.959320 172.700790,357.642365 186.777267,379.393372 
	C188.659210,382.301361 190.761002,383.078094 194.023239,383.064758 
	C221.681488,382.951752 249.340851,382.924225 276.998474,383.096497 
	C280.451447,383.118011 282.187134,381.797577 284.059143,379.179077 
	C288.158539,373.445007 292.170227,367.493530 297.148773,362.572815 
	C310.209625,349.663940 325.799561,340.662109 343.670074,336.323639 
	C356.248993,333.269806 369.160583,332.854645 382.025604,334.936493 
	C387.954468,335.895935 393.840118,337.122437 399.998505,338.275208 
	C399.998505,320.777527 400.001373,303.292419 399.997467,285.807343 
	C399.994934,274.475281 393.587402,268.001556 382.360657,268.001160 
	C305.049591,267.998322 227.738388,267.939056 150.427704,268.109222 
	C143.923981,268.123566 137.252884,269.022919 130.951218,270.644562 
	C103.033798,277.828766 84.775520,295.694366 74.885223,323.365479 
M347.696594,458.930176 
	C356.228424,464.390472 365.137451,468.034912 375.537231,464.973236 
	C392.621979,459.943512 403.115021,445.171844 399.692017,426.927429 
	C396.864441,411.856476 383.500336,400.343781 366.224762,400.851318 
	C352.087158,401.266693 335.801025,414.251282 335.082520,431.509766 
	C334.632965,442.307587 339.237305,451.235870 347.696594,458.930176 
M117.537193,462.107239 
	C130.206787,456.068390 136.496262,443.011108 135.247559,429.623199 
	C133.637924,412.365784 116.185913,399.651276 101.673790,400.856995 
	C81.474976,402.535217 67.034874,419.179138 71.386391,440.343414 
	C75.611511,460.892914 98.467850,472.001007 117.537193,462.107239 
z"/>
<path fill="none" opacity="1.000000" stroke="none" 
	d="
M535.000000,2.500000 
	C522.033386,2.999963 509.064850,2.858036 496.100525,3.030451 
	C471.715973,3.354744 450.822815,12.344205 432.811646,28.634403 
	C417.101410,42.843548 406.978699,60.223385 402.636627,80.884438 
	C401.292023,87.282455 400.167419,93.865402 400.115692,100.373001 
	C399.860168,132.525650 399.998260,164.681427 399.997528,196.836105 
	C399.997498,198.653030 399.997559,200.469971 399.997559,202.305740 
	C393.828247,201.855072 387.976013,201.061722 382.122955,201.055374 
	C305.318359,200.972046 228.512009,200.706726 151.709641,201.129074 
	C115.780167,201.326660 83.571770,213.019028 55.551155,235.885574 
	C34.563503,253.012787 20.297321,274.817780 11.231865,299.992462 
	C6.971814,311.822540 4.070929,324.176758 3.970280,336.988434 
	C3.718149,369.082489 2.711761,401.184937 3.201520,433.265808 
	C3.579729,458.039825 11.622414,480.397156 28.602417,499.222198 
	C44.622925,516.983582 64.163940,527.728149 87.809105,531.116272 
	C88.357445,531.194885 88.825172,531.836121 89.165253,532.607422 
	C59.666668,533.000000 30.333334,533.000000 1.000000,533.000000 
	C1.000000,355.666656 1.000000,178.333328 1.000000,1.000000 
	C177.500000,1.000000 354.000000,0.997521 530.500000,1.041355 
	C532.000061,1.041728 533.500000,1.666668 535.000000,2.500000 
M136.033951,86.932739 
	C136.033951,108.832680 136.033951,130.732620 136.033951,152.656952 
	C197.330795,152.656952 257.979095,152.656952 318.833099,152.656952 
	C318.833099,130.212997 318.833099,108.108879 318.457306,85.243629 
	C317.799011,85.165016 317.140686,85.017708 316.482391,85.017563 
	C257.543823,85.004791 198.605270,84.997536 139.666733,85.042900 
	C138.499634,85.043800 137.333038,85.669807 136.033951,86.932739 
z"/>
<path fill="none" opacity="1.000000" stroke="none" 
	d="
M381.468658,533.000000 
	C381.618347,532.339966 382.171295,531.181946 382.864349,531.090942 
	C423.275360,525.785461 455.801086,494.702148 464.814514,455.562012 
	C466.826202,446.826508 467.846802,437.665588 467.863556,428.697815 
	C468.067322,319.451050 468.089172,210.203613 467.900116,100.956802 
	C467.872131,84.795166 483.106781,69.721306 499.167480,69.947601 
	C510.810059,70.111641 522.459412,69.793037 534.552856,69.844826 
	C535.000000,224.223877 535.000000,378.447754 535.000000,533.000000 
	C483.979584,533.000000 432.958435,533.000000 381.468658,533.000000 
z"/>
<path fill="none" opacity="1.000000" stroke="none" 
	d="
M116.468658,533.000000 
	C116.618500,532.339905 117.160477,531.201172 117.866493,531.088257 
	C153.567108,525.379395 178.675568,505.562561 194.115128,473.314728 
	C197.535629,466.170532 199.330444,458.247955 202.019745,450.249817 
	C223.937271,450.249817 246.546082,450.249817 268.233856,450.249817 
	C272.461853,460.790344 276.015106,471.289490 280.811188,481.186371 
	C286.680756,493.298401 296.007355,502.744080 306.435242,511.243469 
	C318.812836,521.332031 333.074402,527.002625 348.340271,530.672791 
	C350.650330,531.228149 352.982483,531.691711 355.152222,532.598877 
	C275.645782,533.000000 196.291550,533.000000 116.468658,533.000000 
z"/>
<path fill="none" opacity="1.000000" stroke="none" 
	d="
M74.940140,322.964600 
	C84.775520,295.694366 103.033798,277.828766 130.951218,270.644562 
	C137.252884,269.022919 143.923981,268.123566 150.427704,268.109222 
	C227.738388,267.939056 305.049591,267.998322 382.360657,268.001160 
	C393.587402,268.001556 399.994934,274.475281 399.997467,285.807343 
	C400.001373,303.292419 399.998505,320.777527 399.998505,338.275208 
	C393.840118,337.122437 387.954468,335.895935 382.025604,334.936493 
	C369.160583,332.854645 356.248993,333.269806 343.670074,336.323639 
	C325.799561,340.662109 310.209625,349.663940 297.148773,362.572815 
	C292.170227,367.493530 288.158539,373.445007 284.059143,379.179077 
	C282.187134,381.797577 280.451447,383.118011 276.998474,383.096497 
	C249.340851,382.924225 221.681488,382.951752 194.023239,383.064758 
	C190.761002,383.078094 188.659210,382.301361 186.777267,379.393372 
	C172.700790,357.642365 153.199158,342.959320 128.031326,336.672211 
	C111.379318,332.512421 94.441925,332.391174 77.682808,336.965302 
	C76.015648,337.420319 74.308891,337.730286 71.062393,338.455780 
	C72.525375,332.680786 73.705299,328.023132 74.940140,322.964600 
z"/>
<path fill="none" opacity="1.000000" stroke="none" 
	d="
M347.387451,458.737244 
	C339.237305,451.235870 334.632965,442.307587 335.082520,431.509766 
	C335.801025,414.251282 352.087158,401.266693 366.224762,400.851318 
	C383.500336,400.343781 396.864441,411.856476 399.692017,426.927429 
	C403.115021,445.171844 392.621979,459.943512 375.537231,464.973236 
	C365.137451,468.034912 356.228424,464.390472 347.387451,458.737244 
z"/>
<path fill="none" opacity="1.000000" stroke="none" 
	d="
M117.229126,462.337921 
	C98.467850,472.001007 75.611511,460.892914 71.386391,440.343414 
	C67.034874,419.179138 81.474976,402.535217 101.673790,400.856995 
	C116.185913,399.651276 133.637924,412.365784 135.247559,429.623199 
	C136.496262,443.011108 130.206787,456.068390 117.229126,462.337921 
z"/>
<path fill="#76B041" opacity="1.000000" stroke="none" 
	d="
M318.833099,86.004753 
	C318.833099,108.108879 318.833099,130.212997 318.833099,152.656952 
	C257.979095,152.656952 197.330795,152.656952 136.033951,152.656952 
	C136.033951,130.732620 136.033951,108.832680 136.558167,86.467804 
	C197.665939,86.003494 258.249512,86.004120 318.833099,86.004753 
z"/>
<path fill="#80AA2A" opacity="1.000000" stroke="none" 
	d="
M318.645203,85.624191 
	C258.249512,86.004120 197.665939,86.003494 136.624283,86.003517 
	C137.333038,85.669807 138.499634,85.043800 139.666733,85.042900 
	C198.605270,84.997536 257.543823,85.004791 316.482391,85.017563 
	C317.140686,85.017708 317.799011,85.165016 318.645203,85.624191 
z"/>
</svg>